<svg preserveAspectRatio="none" overflow="visible" style="display: block;" width="32" height="32" viewBox="0 0 32 32" fill="none" xmlns="http://www.w3.org/2000/svg">
<g id="24 Thumb_up">
<path id="Vector" d="M27.2133 10.662H21C21.2292 9.34162 21.3451 8.0041 21.3467 6.664C21.3467 3.37231 19.8133 1.33333 17.3467 1.33333H14.68L14.4933 2.41279C13.7503 6.19464 12.5177 9.86367 10.8267 13.3273H5.33333C3.85333 13.3273 2.66667 16.659 2.66667 20.6703C2.66667 24.6817 3.85333 28 5.33333 28H12C12.3067 28 12.6133 27.6535 12.8933 27.1338C14.305 27.7012 15.8118 27.9952 17.3333 28H20C23.5733 28 26.28 26.1209 27.0533 23.1624C27.8471 22.4927 28.4313 21.6089 28.7363 20.6165C29.0413 19.624 29.0541 18.5648 28.7733 17.5652C29.5549 16.5574 29.9856 15.322 30 14.047C30 11.8081 28.7467 10.662 27.2133 10.662ZM6.12 25.3213C5.54711 23.8351 5.27957 22.2488 5.33333 20.657C5.28102 19.0653 5.54851 17.4793 6.12 15.9927H10.12C9.5506 17.4798 9.28318 19.0654 9.33333 20.657C9.28381 22.2497 9.55589 23.8361 10.1333 25.3213H6.12ZM26.3333 16.4191L25.7733 17.0988L26.1333 17.925C26.3691 18.5348 26.385 19.2077 26.1781 19.8279C25.9713 20.4481 25.5547 20.9769 25 21.3233L24.5733 21.6432L24.48 22.1629C24.0667 24.4818 21.8133 25.308 19.9467 25.308H17.28C15.5079 25.3505 13.769 24.8226 12.32 23.8021C12.0627 22.7693 11.9372 21.708 11.9467 20.6437C11.8839 18.545 12.294 16.459 13.1467 14.5401C14.798 11.1837 16.0509 7.6459 16.88 3.99867H17.3333C18.4267 3.99867 18.6667 5.45127 18.6667 6.664C18.6706 8.35241 18.4691 10.035 18.0667 11.6748C17.8267 12.5944 17.9467 13.3273 19.4 13.3273H27.28C27.4057 13.8804 27.3845 14.4568 27.2184 14.9992C27.0523 15.5415 26.7472 16.0311 26.3333 16.4191Z" fill="#4AD0A1"/>
</g>
</svg>
