<svg preserveAspectRatio="none" overflow="visible" style="display: block;" width="24" height="24" viewBox="0 0 24 24" fill="none" xmlns="http://www.w3.org/2000/svg">
<g id="ic_uv">
<g id="shape">
<path d="M11.1744 1.82501C11.1744 1.36937 11.5438 1 11.9995 1C12.4551 1 12.8245 1.36937 12.8245 1.82501V4.20839C12.8245 4.66403 12.4551 5.0334 11.9995 5.0334C11.5438 5.0334 11.1744 4.66403 11.1744 4.20839V1.82501Z" fill="#FF674E"/>
<path fill-rule="evenodd" clip-rule="evenodd" d="M11.9997 17.2708C14.9106 17.2708 17.2705 14.911 17.2705 12C17.2705 9.08907 14.9106 6.72926 11.9997 6.72926C9.08871 6.72926 6.7289 9.08907 6.7289 12C6.7289 14.911 9.08871 17.2708 11.9997 17.2708ZM11.9997 15.8958C14.1512 15.8958 15.8954 14.1516 15.8954 12C15.8954 9.84847 14.1512 8.10428 11.9997 8.10428C9.84811 8.10428 8.10392 9.84847 8.10392 12C8.10392 14.1516 9.84811 15.8958 11.9997 15.8958Z" fill="#FF674E"/>
<path d="M19.777 4.22152C19.4548 3.89933 18.9324 3.89933 18.6102 4.22152L16.925 5.90682C16.6028 6.229 16.6028 6.75137 16.925 7.07356C17.2471 7.39575 17.7695 7.39575 18.0917 7.07356L19.777 5.38826C20.0992 5.06608 20.0992 4.54371 19.777 4.22152Z" fill="#FF674E"/>
<path d="M22.175 11.1748C22.6306 11.1748 23 11.5442 23 11.9998C23 12.4555 22.6306 12.8248 22.175 12.8248H19.7916C19.336 12.8248 18.9666 12.4555 18.9666 11.9998C18.9666 11.5442 19.336 11.1748 19.7916 11.1748H22.175Z" fill="#FF674E"/>
<path d="M19.7776 19.7782C20.0998 19.4561 20.0998 18.9337 19.7776 18.6115L18.0923 16.9262C17.7701 16.604 17.2477 16.604 16.9255 16.9262C16.6034 17.2484 16.6034 17.7708 16.9255 18.093L18.6108 19.7782C18.933 20.1004 19.4554 20.1004 19.7776 19.7782Z" fill="#FF674E"/>
<path d="M11.1744 19.7916C11.1744 19.336 11.5438 18.9666 11.9995 18.9666C12.4551 18.9666 12.8245 19.336 12.8245 19.7916V22.175C12.8245 22.6306 12.4551 23 11.9995 23C11.5438 23 11.1744 22.6306 11.1744 22.175V19.7916Z" fill="#FF674E"/>
<path d="M7.07415 16.9262C6.75196 16.604 6.22959 16.604 5.90741 16.9262L4.22211 18.6115C3.89992 18.9336 3.89992 19.456 4.22211 19.7782C4.5443 20.1004 5.06667 20.1004 5.38885 19.7782L7.07415 18.0929C7.39634 17.7707 7.39634 17.2483 7.07415 16.9262Z" fill="#FF674E"/>
<path d="M4.20839 11.1748C4.66403 11.1748 5.0334 11.5442 5.0334 11.9998C5.0334 12.4555 4.66403 12.8248 4.20839 12.8248H1.82501C1.36937 12.8248 1 12.4555 1 11.9998C1 11.5442 1.36937 11.1748 1.82501 11.1748H4.20839Z" fill="#FF674E"/>
<path d="M7.07474 7.07361C7.39693 6.75143 7.39693 6.22906 7.07474 5.90687L5.38944 4.22157C5.06726 3.89938 4.54489 3.89938 4.2227 4.22157C3.90051 4.54376 3.90051 5.06613 4.2227 5.38832L5.908 7.07361C6.23019 7.3958 6.75256 7.3958 7.07474 7.07361Z" fill="#FF674E"/>
</g>
</g>
</svg>
