<svg preserveAspectRatio="none" overflow="visible" style="display: block;" width="44" height="44" viewBox="0 0 44 44" fill="none" xmlns="http://www.w3.org/2000/svg">
<g id="Forecast/light/fct_sn_dwn">
<path id="Path 5" d="M20.625 38.5V31.1667C20.625 30.4073 21.2406 29.7917 22 29.7917C22.7594 29.7917 23.375 30.4073 23.375 31.1667V38.5C23.375 39.2594 22.7594 39.875 22 39.875C21.2406 39.875 20.625 39.2594 20.625 38.5Z" fill="white"/>
<path id="Path 6" d="M23.7777 36.6111C24.3147 36.0741 25.1853 36.0741 25.7223 36.6111C26.2592 37.148 26.2592 38.0186 25.7223 38.5556L22.9723 41.3056C22.4353 41.8426 21.5647 41.8426 21.0277 41.3056L18.2777 38.5556C17.7408 38.0186 17.7408 37.148 18.2777 36.6111C18.8147 36.0741 19.6853 36.0741 20.2223 36.6111L22 38.3888L23.7777 36.6111Z" fill="white"/>
<g id="Group 2087325878">
<path id="Vector" d="M21.999 14.2943C15.7187 14.2943 10.6276 19.3854 10.6276 25.6657H33.3704C33.3704 19.3854 28.2792 14.2943 21.999 14.2943Z" fill="url(#paint0_linear_0_1502)"/>
<path id="Union" d="M3.81807 18.1362C4.23391 17.132 5.38513 16.655 6.38936 17.0707L8.40987 17.9077C9.41413 18.3235 9.89116 19.4747 9.47529 20.4789C9.05934 21.483 7.90817 21.9602 6.90401 21.5444L4.8835 20.7075C3.87935 20.2916 3.40233 19.1404 3.81807 18.1362ZM37.612 17.0688C38.6161 16.6529 39.7672 17.1293 40.1833 18.1332C40.5993 19.1373 40.1229 20.2894 39.1188 20.7055L37.0983 21.5424C36.0942 21.9585 34.9431 21.4812 34.527 20.477C34.111 19.4728 34.5873 18.3218 35.5915 17.9057L37.612 17.0688ZM14.4685 7.48578C15.4725 7.06987 16.6235 7.5464 17.0397 8.55023L17.8767 10.5707C18.2927 11.5749 17.8164 12.7269 16.8122 13.143C15.8081 13.559 14.657 13.0817 14.2409 12.0776L13.403 10.0571C12.9873 9.05298 13.4644 7.90178 14.4685 7.48578ZM26.9597 8.54828C27.3755 7.54401 28.5277 7.06699 29.5319 7.48285C30.5359 7.89879 31.013 9.05005 30.5974 10.0541L29.7604 12.0746C29.3446 13.0788 28.1934 13.5558 27.1892 13.1401C26.1849 12.7242 25.7079 11.5731 26.1237 10.5688L26.9597 8.54828Z" fill="url(#paint1_linear_0_1502)"/>
</g>
<path id="Rectangle 3" opacity="0.5" fill-rule="evenodd" clip-rule="evenodd" d="M4.58333 26.6667C4.58333 26.1144 5.03105 25.6667 5.58333 25.6667H38.4167C38.969 25.6667 39.4167 26.1144 39.4167 26.6667V27.4167C39.4167 27.969 38.969 28.4167 38.4167 28.4167H5.58333C5.03105 28.4167 4.58333 27.969 4.58333 27.4167V26.6667Z" fill="white"/>
</g>
<defs>
<linearGradient id="paint0_linear_0_1502" x1="10.7792" y1="14.2943" x2="10.7792" y2="25.514" gradientUnits="userSpaceOnUse">
<stop stop-color="#FFC227"/>
<stop offset="1" stop-color="#FFB300"/>
</linearGradient>
<linearGradient id="paint1_linear_0_1502" x1="3.91232" y1="7.3326" x2="3.91232" y2="21.5031" gradientUnits="userSpaceOnUse">
<stop stop-color="#FFC227"/>
<stop offset="1" stop-color="#FFB300"/>
</linearGradient>
</defs>
</svg>
